<svg xmlns="http://www.w3.org/2000/svg" xmlns:xlink="http://www.w3.org/1999/xlink"><defs><clipPath id="clip0"><path fill="#fff" d="M0 0h16v16H0z"/></clipPath></defs><symbol id="icon-arrow-down" viewBox="0 0 22 33">
<path fill-rule="evenodd" clip-rule="evenodd" d="M10.238 26.953L10.238 0.544922L11.6942 0.544922L11.6942 26.9324C12.1518 26.0609 12.7197 25.3044 13.3994 24.6392C15.1964 22.8801 17.7058 21.8301 20.7616 20.9124L21.1592 22.0476C18.1484 22.9518 15.9008 23.9273 14.3357 25.4593C12.9432 26.8223 12.0345 28.6838 11.6942 31.4879L11.6942 32.454L11.6021 32.454L10.3161 32.454L10.238 32.454L10.238 31.6057C9.90935 28.7353 8.99783 26.8407 7.58897 25.4588C6.02738 23.9272 3.78345 22.9518 0.772819 22.0476L1.17044 20.9124C4.22634 21.8302 6.73249 22.8802 8.52614 24.6396C9.20976 25.3101 9.77973 26.0731 10.238 26.953Z"/>
</symbol><symbol id="icon-arrow-right" viewBox="0 0 56 35">
<path fill-rule="evenodd" clip-rule="evenodd" d="M46.3457 18.7499H0V16.2499H46.3096C44.7802 15.4643 43.4526 14.4893 42.285 13.3224C39.1978 10.2371 37.3552 5.92885 35.7447 0.682652L37.737 0C39.3238 5.16905 41.0358 9.02787 43.7244 11.7149C46.1164 14.1056 49.3834 15.6656 54.3045 16.2499H56V16.408V18.6159V18.7499H54.5113C49.4737 19.3142 46.1487 20.8791 43.7235 23.2979C41.0355 25.9789 39.3238 29.8314 37.737 35.0001L35.7447 34.3175C37.3553 29.071 39.1981 24.7683 42.2857 21.6889C43.4625 20.5153 44.8016 19.5367 46.3457 18.7499Z"/>
</symbol><symbol id="icon-burger" viewBox="0 0 48 48">
<path d="M6 24H24" stroke="white" stroke-width="2" stroke-linecap="round" stroke-linejoin="round"/>
<path d="M6 12H42" stroke="white" stroke-width="2" stroke-linecap="round" stroke-linejoin="round"/>
<path d="M6 36H42" stroke="white" stroke-width="2" stroke-linecap="round" stroke-linejoin="round"/>
</symbol><symbol id="icon-clip" viewBox="0 0 19 20">
<path d="M12.8278 5.75689L7.1718 11.4139C7.07629 11.5061 7.00011 11.6165 6.9477 11.7385C6.89529 11.8605 6.8677 11.9917 6.86655 12.1245C6.86539 12.2573 6.8907 12.3889 6.94098 12.5118C6.99126 12.6347 7.06551 12.7464 7.1594 12.8403C7.2533 12.9342 7.36495 13.0084 7.48784 13.0587C7.61074 13.109 7.74242 13.1343 7.8752 13.1331C8.00798 13.132 8.1392 13.1044 8.2612 13.052C8.38321 12.9996 8.49355 12.9234 8.5858 12.8279L14.2428 7.17189C14.8055 6.60923 15.1216 5.8461 15.1216 5.05039C15.1216 4.25467 14.8055 3.49154 14.2428 2.92889C13.6801 2.36623 12.917 2.05013 12.1213 2.05013C11.3256 2.05013 10.5625 2.36623 9.9998 2.92889L4.3428 8.58589C3.86887 9.04802 3.49143 9.59965 3.23236 10.2088C2.97328 10.8179 2.83774 11.4724 2.8336 12.1344C2.82945 12.7963 2.95678 13.4525 3.2082 14.0648C3.45961 14.6771 3.83012 15.2334 4.29821 15.7015C4.76631 16.1695 5.32268 16.5399 5.93505 16.7913C6.54742 17.0426 7.20361 17.1698 7.86553 17.1656C8.52746 17.1614 9.18196 17.0257 9.79106 16.7666C10.4002 16.5074 10.9517 16.1299 11.4138 15.6559L17.0708 9.99989L18.4848 11.4139L12.8278 17.0709C12.1778 17.7209 11.406 18.2366 10.5567 18.5884C9.7074 18.9402 8.7971 19.1212 7.8778 19.1212C6.9585 19.1212 6.0482 18.9402 5.19888 18.5884C4.34956 18.2366 3.57784 17.7209 2.9278 17.0709C2.27776 16.4208 1.76211 15.6491 1.41031 14.7998C1.05851 13.9505 0.877441 13.0402 0.877441 12.1209C0.877441 11.2016 1.05851 10.2913 1.41031 9.44197C1.76211 8.59264 2.27776 7.82093 2.9278 7.17089L8.5858 1.51489C9.52881 0.604097 10.7918 0.100125 12.1028 0.111517C13.4138 0.122909 14.6679 0.648754 15.5949 1.57579C16.5219 2.50284 17.0478 3.7569 17.0592 5.06788C17.0706 6.37887 16.5666 7.64188 15.6558 8.58489L9.9998 14.2439C9.72113 14.5225 9.39032 14.7435 9.02625 14.8942C8.66219 15.045 8.27199 15.1225 7.87794 15.1225C7.4839 15.1224 7.09372 15.0448 6.72969 14.894C6.36566 14.7431 6.0349 14.5221 5.7563 14.2434C5.4777 13.9647 5.25671 13.6339 5.10596 13.2698C4.95521 12.9058 4.87765 12.5156 4.87769 12.1215C4.87774 11.7275 4.9554 11.3373 5.10623 10.9733C5.25707 10.6092 5.47813 10.2785 5.7568 9.99989L11.4138 4.34289L12.8278 5.75689Z"/>
</symbol><symbol id="icon-cross" viewBox="0 0 24 24">
<path d="M22.4359 1L1 22.4359" stroke-width="2" stroke-linecap="round" stroke-linejoin="round"/>
<path d="M1 1L22.4359 22.4359" stroke-width="2" stroke-linecap="round" stroke-linejoin="round"/>
</symbol><symbol id="icon-dragoweb" viewBox="0 0 81 15">
<path d="M8.34997 13.1764V0H6.80628V4.50536C6.17477 4.29082 5.49063 4.16567 4.61354 4.16567C1.45598 4.16567 0 6.36472 0 8.95709C0 11.3528 0.98235 13.3731 3.75398 13.3731C5.2275 13.3731 6.35019 12.6222 6.87645 11.6746V13.1764H8.34997ZM6.80628 6.00715V9.15375C6.80628 9.74374 6.61332 10.3159 6.35019 10.7449C5.98181 11.3349 5.10471 11.907 4.17499 11.907C2.36816 11.907 1.57878 10.6377 1.57878 8.84982C1.57878 6.88319 2.66638 5.61383 4.75387 5.61383C5.50817 5.61383 6.2274 5.70322 6.80628 6.00715Z"/>
<path d="M12.3921 13.1764V9.54708C12.3921 8.97497 12.4097 8.22408 12.5324 7.59833C12.6903 6.84744 13.5674 5.61383 14.7252 5.61383C15.1813 5.61383 15.7075 5.73897 16.1812 6.11442L16.9706 4.68415C16.4794 4.32658 15.883 4.1478 15.1462 4.1478C13.7604 4.1478 12.743 5.04172 12.357 6.07867V4.29082H10.8309V13.1764H12.3921Z"/>
<path d="M24.4981 4.82718V5.4708C23.6561 4.57688 22.6386 4.1478 21.4458 4.1478C20.2529 4.1478 19.2355 4.59476 18.3759 5.48868C17.5339 6.3826 17.1129 7.47318 17.1129 8.74255C17.1129 10.0119 17.5339 11.1025 18.3759 12.0143C19.2355 12.9082 20.2529 13.3552 21.4458 13.3552C22.6386 13.3552 23.6561 12.9082 24.4981 12.0143V13.0155H26.0944V4.48749L24.4981 4.82718ZM21.551 11.907C20.7616 11.907 20.0775 11.6031 19.5162 10.9952C18.9548 10.3695 18.6741 9.61859 18.6741 8.74255C18.6741 7.86651 18.9548 7.13349 19.5162 6.50775C20.0775 5.882 20.7616 5.57807 21.551 5.57807C22.3404 5.57807 23.0246 5.882 23.5859 6.50775C24.1472 7.13349 24.4279 7.86651 24.4279 8.74255C24.4279 9.61859 24.1472 10.3695 23.5859 10.9952C23.0246 11.6031 22.3404 11.907 21.551 11.907Z"/>
<path d="M33.3519 11.8534C32.6853 11.907 32.1415 11.9964 31.7205 12.1395C31.2995 12.2646 31.0013 12.4076 30.8083 12.5328L30.5101 12.7294L31.3696 11.2455H31.4924C31.6152 11.2455 31.7205 11.2634 31.8082 11.2634C32.9133 11.2634 33.8255 10.9058 34.5623 10.2265C35.299 9.5292 35.6674 8.68891 35.6674 7.7056C35.6674 6.91895 35.3341 6.23957 34.6675 5.66746C34.9307 5.68534 35.5972 5.70322 36.6673 5.70322V4.29082H31.8257C30.5627 4.29082 29.5453 4.61263 28.8085 5.27414C28.0542 5.93564 27.6858 6.77592 27.6858 7.75924C27.6858 8.72467 28.0191 9.56496 28.6857 10.298L28.8085 10.4231C28.8962 10.4768 29.019 10.5483 29.1769 10.6377C29.2821 10.6734 29.3874 10.7271 29.5277 10.7807L28.0893 13.82L29.2295 14.9464L29.6505 14.6961C29.9487 14.5352 30.2996 14.3564 30.7381 14.1597C31.1767 13.9809 31.5451 13.8558 31.8608 13.82C32.1766 13.7664 32.3871 13.7485 32.5274 13.7485C32.8432 13.7485 33.1414 13.8021 33.422 13.9273C33.8255 14.0882 34.1413 14.4458 34.3518 15H36.755L36.7375 14.6782C36.7199 14.4636 36.6673 14.2133 36.5796 13.9094C36.4743 13.5876 36.2989 13.2837 36.0709 12.9797C35.8253 12.6758 35.492 12.4076 35.0534 12.1931C34.6149 11.9785 34.036 11.8713 33.3519 11.8534ZM31.6854 5.66746C33.2291 5.68534 34.0009 6.36472 34.0009 7.7056C33.9658 9.10012 33.194 9.79738 31.7029 9.79738C30.1417 9.74374 29.3523 9.06436 29.3523 7.75924C29.3523 7.20501 29.5453 6.72229 29.9137 6.29321C30.2996 5.882 30.8785 5.66746 31.6854 5.66746Z"/>
<path d="M46.5074 8.70679C46.5074 6.02503 44.7707 4.07628 41.9465 4.07628C39.1573 4.07628 37.368 6.1323 37.368 8.76043C37.368 11.5137 39.1748 13.3731 41.9114 13.3731C44.6304 13.3731 46.5074 11.4064 46.5074 8.70679ZM44.9286 8.72467C44.9286 10.3516 43.9287 11.907 41.9465 11.907C39.9642 11.907 38.9293 10.4946 38.9293 8.76043C38.9293 7.13349 39.8414 5.54231 41.9465 5.54231C44.0515 5.54231 44.9286 7.09774 44.9286 8.72467Z"/>
<path d="M51.7823 13.1764C53.3435 9.01073 53.7996 7.59833 54.1154 6.61502C54.4136 7.61621 54.8697 8.99285 56.4309 13.1764H57.7817L60.9041 4.32658H59.2552C57.5887 9.17163 57.308 10.1192 57.0624 11.0489C56.7818 10.1371 56.4309 9.08224 54.7294 4.32658H53.5891C51.8525 9.17163 51.5367 10.1371 51.2736 11.0667C51.0105 10.1013 50.7298 9.15375 49.0458 4.32658H47.3091L50.3965 13.1764H51.7823Z"/>
<path d="M69.85 12.3182V10.7628C69.008 11.317 68.1659 11.907 66.3416 11.907C64.447 11.907 63.3068 10.6734 63.2893 9.17163H70.2359C70.2534 8.99285 70.2534 8.51013 70.2534 8.33135C70.2534 5.70322 68.7799 4.09416 66.2188 4.09416C63.3594 4.09416 61.728 6.18594 61.728 8.70679C61.728 11.4064 63.3068 13.3731 66.2012 13.3731C68.0432 13.3731 69.1483 12.7652 69.85 12.3182ZM63.377 7.83075C63.5173 6.40048 64.6049 5.4708 66.2012 5.4708C67.7976 5.4708 68.7624 6.50775 68.7624 7.83075H63.377Z"/>
<path d="M72.1763 12.7294C73.2289 13.087 74.4042 13.3552 75.6321 13.3552C78.0354 13.3552 80.5263 12.1573 80.5263 8.47437C80.5263 5.75685 79.1931 4.1478 76.825 4.1478C75.5619 4.1478 74.2989 4.8093 73.7025 5.89988V0H72.1763V12.7294ZM73.7376 11.5137V8.51013C73.7376 7.84863 73.8779 7.25864 74.141 6.88319C74.6322 6.20381 75.4391 5.6317 76.3689 5.6317C78.0178 5.6317 78.9475 6.6329 78.9475 8.58164C78.9475 10.9774 77.4916 11.8892 75.7724 11.8892C74.8076 11.8892 74.2112 11.7104 73.7376 11.5137Z"/>
<path d="M42.8232 9.66537C42.1696 10.3191 40.3112 10.5027 40.3112 10.5027C40.3112 10.5027 40.4948 8.64433 41.1485 7.99064C41.8022 7.33696 43.6606 7.15328 43.6606 7.15328C43.6606 7.15328 43.4769 9.01168 42.8232 9.66537Z" fill="#59D87C"/>
</symbol><symbol id="icon-dropdown" viewBox="0 0 12 7">
<path d="M11 1L6 6L1 1" stroke-width="1.5" stroke-linecap="round" stroke-linejoin="round"/>
</symbol><symbol id="icon-ellipse" viewBox="0 0 77 52">
<path d="M1.93316 5.02757C3.01587 3.15226 5.021 1.86944 7.81702 1.20325C10.6145 0.536728 14.1573 0.500836 18.2195 1.08611C26.341 2.25624 36.4335 5.89379 46.5562 11.7382C56.679 17.5825 64.8754 24.5041 69.9495 30.9525C72.4875 34.1778 74.2278 37.2639 75.0493 40.0198C75.8704 42.7744 75.762 45.1523 74.6793 47.0276C73.5966 48.9029 71.5915 50.1857 68.7954 50.8519C65.998 51.5184 62.4552 51.5543 58.3929 50.969C50.2714 49.7989 40.179 46.1614 30.0562 40.317C19.9335 34.4726 11.737 27.5511 6.66292 21.1027C4.12495 17.8773 2.38462 14.7912 1.56313 12.0353C0.742062 9.28079 0.850447 6.90289 1.93316 5.02757Z"/>
</symbol><symbol id="icon-facebook" viewBox="0 0 16 16">
<path fill-rule="evenodd" clip-rule="evenodd" d="M0.882445 2.86831e-08H15.1168C15.6044 -0.000122918 15.9998 0.395019 16 0.882445V15.1168V15.1172C15.9999 15.6049 15.6045 16.0001 15.1168 16H0.883178C0.395629 16.0001 0.000243293 15.605 2.86831e-08 15.1176V0.883178C-0.000122918 0.395629 0.395019 0.000243293 0.882445 2.86831e-08ZM11.0469 9.81235V15.9999H8.54688V9.81235H6.46875V7.39048H8.54688V5.60813C8.54688 3.54123 9.80872 2.41623 11.6525 2.41623C12.5355 2.41623 13.2944 2.48203 13.5156 2.51145V4.67173H12.2443C11.2411 4.67173 11.0469 5.14841 11.0469 5.848V7.39048H13.4453L13.1328 9.81235H11.0469Z" fill="white"/>
</symbol><symbol id="icon-instagram" viewBox="0 0 16 16">
<path d="M8 0C5.82667 0 5.55533 0.01 4.702 0.048C3.85 0.088 3.27 0.222 2.76 0.42C2.234 0.624 1.78733 0.898 1.34267 1.34267C0.898 1.78733 0.623333 2.23333 0.42 2.76C0.222 3.27 0.0873333 3.85 0.048 4.702C0.008 5.55533 0 5.82667 0 8C0 10.1733 0.01 10.4447 0.048 11.298C0.088 12.1493 0.222 12.73 0.42 13.24C0.624 13.7653 0.898 14.2127 1.34267 14.6573C1.78733 15.1013 2.23333 15.3767 2.76 15.58C3.27067 15.7773 3.85067 15.9127 4.702 15.952C5.55533 15.992 5.82667 16 8 16C10.1733 16 10.4447 15.99 11.298 15.952C12.1493 15.912 12.73 15.7773 13.24 15.58C13.7653 15.376 14.2127 15.1013 14.6573 14.6573C15.1013 14.2127 15.3767 13.7673 15.58 13.24C15.7773 12.73 15.9127 12.1493 15.952 11.298C15.992 10.4447 16 10.1733 16 8C16 5.82667 15.99 5.55533 15.952 4.702C15.912 3.85067 15.7773 3.26933 15.58 2.76C15.376 2.234 15.1013 1.78733 14.6573 1.34267C14.2127 0.898 13.7673 0.623333 13.24 0.42C12.73 0.222 12.1493 0.0873333 11.298 0.048C10.4447 0.008 10.1733 0 8 0ZM8 1.44C10.1353 1.44 10.39 1.45067 11.2333 1.48733C12.0133 1.524 12.4367 1.65333 12.718 1.764C13.0927 1.90867 13.358 2.082 13.6393 2.36133C13.9187 2.64133 14.092 2.90733 14.2367 3.282C14.346 3.56333 14.4767 3.98667 14.512 4.76667C14.55 5.61067 14.5587 5.864 14.5587 8C14.5587 10.136 14.5487 10.39 14.5093 11.2333C14.4687 12.0133 14.3387 12.4367 14.2287 12.718C14.0793 13.0927 13.9093 13.358 13.6293 13.6393C13.35 13.9187 13.08 14.092 12.7093 14.2367C12.4293 14.346 11.9993 14.4767 11.2193 14.512C10.37 14.55 10.12 14.5587 7.98 14.5587C5.83933 14.5587 5.58933 14.5487 4.74067 14.5093C3.96 14.4687 3.53 14.3387 3.25 14.2287C2.87067 14.0793 2.61 13.9093 2.33067 13.6293C2.05 13.35 1.87067 13.08 1.73067 12.7093C1.62067 12.4293 1.49133 11.9993 1.45067 11.2193C1.42067 10.3793 1.41 10.12 1.41 7.99C1.41 5.85933 1.42067 5.59933 1.45067 4.74933C1.49133 3.96933 1.62067 3.54 1.73067 3.26C1.87067 2.88 2.05 2.62 2.33067 2.33933C2.61 2.06 2.87067 1.88 3.25 1.74067C3.53 1.63 3.95067 1.5 4.73067 1.46C5.58067 1.43 5.83067 1.42 7.97 1.42L8 1.44ZM8 3.892C5.73 3.892 3.892 5.732 3.892 8C3.892 10.27 5.732 12.108 8 12.108C10.27 12.108 12.108 10.268 12.108 8C12.108 5.73 10.268 3.892 8 3.892ZM8 10.6667C6.52667 10.6667 5.33333 9.47333 5.33333 8C5.33333 6.52667 6.52667 5.33333 8 5.33333C9.47333 5.33333 10.6667 6.52667 10.6667 8C10.6667 9.47333 9.47333 10.6667 8 10.6667ZM13.2307 3.73C13.2307 4.26 12.8 4.69 12.2707 4.69C11.7407 4.69 11.3107 4.25933 11.3107 3.73C11.3107 3.20067 11.7413 2.77067 12.2707 2.77067C12.7993 2.77 13.2307 3.20067 13.2307 3.73Z"/>
</symbol><symbol id="icon-mail" viewBox="0 0 16 17">
<path d="M2.00065 2.46484H14.0007C14.1775 2.46484 14.347 2.53508 14.4721 2.66011C14.5971 2.78513 14.6673 2.9547 14.6673 3.13151V13.7982C14.6673 13.975 14.5971 14.1446 14.4721 14.2696C14.347 14.3946 14.1775 14.4648 14.0007 14.4648H2.00065C1.82384 14.4648 1.65427 14.3946 1.52925 14.2696C1.40422 14.1446 1.33398 13.975 1.33398 13.7982V3.13151C1.33398 2.9547 1.40422 2.78513 1.52925 2.66011C1.65427 2.53508 1.82384 2.46484 2.00065 2.46484ZM8.04065 8.25351L3.76598 4.62351L2.90265 5.63951L8.04932 10.0095L13.1033 5.63618L12.2313 4.62751L8.04132 8.25351H8.04065Z"/>
</symbol><symbol id="icon-phone" viewBox="0 0 19 19">
<path d="M18.6306 15.108L16.5242 13.7037L14.6517 12.4556C14.2903 12.2152 13.8047 12.294 13.5379 12.6365L12.3793 14.126C12.1304 14.4492 11.6827 14.5421 11.3258 14.3445C10.5396 13.9072 9.60987 13.4954 7.55857 11.4414C5.50726 9.38748 5.09285 8.46043 4.65553 7.67424C4.45793 7.31732 4.55081 6.86961 4.87403 6.62075L6.36355 5.46211C6.70596 5.19536 6.78481 4.70972 6.54437 4.34831L5.33462 2.5335L3.89193 0.369458C3.64639 0.00111404 3.15484 -0.109471 2.77522 0.118193L1.1114 1.11635C0.661747 1.38127 0.331216 1.80906 0.188273 2.31104C-0.26672 3.96991 -0.358453 7.62934 5.50625 13.494C11.371 19.3587 15.0301 19.2667 16.6889 18.8116C17.1909 18.6687 17.6187 18.3383 17.8836 17.8885L18.8818 16.2248C19.1095 15.845 18.9989 15.3536 18.6306 15.108Z"/>
</symbol><symbol id="icon-play-review" viewBox="0 0 14 16">
<path d="M13.332 7.83333L0.832031 15.0502L0.832031 0.616455L13.332 7.83333Z"/>
</symbol><symbol id="icon-play-text" viewBox="0 0 124 124">
<path d="M55.3668 112.31C56.6278 112.478 57.6154 113.032 58.3296 113.975C59.0439 114.917 59.321 115.991 59.161 117.196C59.001 118.401 58.4534 119.366 57.5181 120.089C56.5828 120.812 55.4847 121.09 54.2238 120.923C53.4545 120.821 52.7734 120.541 52.1805 120.083C51.5866 119.633 51.1567 119.071 50.8909 118.398L51.6853 118.068C51.8797 118.61 52.2146 119.066 52.69 119.436C53.1655 119.806 53.7126 120.032 54.3311 120.114C55.37 120.252 56.2633 120.027 57.011 119.441C57.7587 118.854 58.1978 118.069 58.3283 117.085C58.4588 116.102 58.2397 115.23 57.671 114.468C57.1022 113.707 56.2984 113.257 55.2595 113.119C54.6409 113.037 54.0539 113.113 53.4984 113.345C52.9429 113.578 52.5007 113.931 52.1716 114.404L51.4893 113.89C51.9135 113.309 52.4754 112.875 53.1752 112.588C53.867 112.301 54.5976 112.208 55.3668 112.31Z"/>
<path d="M35.9079 115.432L39.0227 107.631L39.8028 107.943L37.1596 114.562L41.7144 111.083L41.8259 111.128L42.7319 116.787L45.375 110.168L46.1552 110.479L43.0403 118.28L42.0708 117.893L41.2095 112.51L36.8774 115.819L35.9079 115.432Z"/>
<path d="M29.0049 102.42C30.174 102.209 31.2579 102.451 32.2566 103.144C33.2552 103.838 33.8599 104.77 34.0705 105.939C34.2766 107.114 34.035 108.198 33.3458 109.19C32.6566 110.182 31.7274 110.784 30.5583 110.994C29.3846 111.212 28.2984 110.973 27.2998 110.28C26.3011 109.586 25.6987 108.651 25.4927 107.475C25.2821 106.306 25.5214 105.226 26.2106 104.234C26.8998 103.241 27.8312 102.637 29.0049 102.42ZM33.259 106.076C33.095 105.134 32.6057 104.38 31.791 103.814C30.9763 103.248 30.099 103.053 29.1592 103.228C28.2147 103.41 27.4618 103.905 26.9004 104.713C26.339 105.521 26.1403 106.396 26.3042 107.338C26.4636 108.286 26.9506 109.043 27.7653 109.609C28.58 110.175 29.4596 110.367 30.404 110.186C31.3439 110.011 32.0945 109.519 32.6559 108.711C33.2173 107.903 33.4183 107.025 33.259 106.076Z"/>
<path d="M16.7993 100.553L17.3712 100.005L19.1559 101.868L24.6499 96.6051L25.231 97.2117L19.737 102.475L21.5217 104.338L20.9498 104.886L16.7993 100.553Z"/>
<path d="M11.8075 93.6059C11.4097 92.9677 11.2914 92.3014 11.4526 91.6071C11.6138 90.9128 12.0135 90.3668 12.6517 89.969C13.2899 89.5713 13.9562 89.453 14.6505 89.6142C15.3448 89.7754 15.8908 90.1751 16.2885 90.8133L17.4309 92.6464L20.0788 90.9963L20.5231 91.7092L13.3941 96.1519L11.8075 93.6059ZM15.6163 91.2322C15.3413 90.7909 14.969 90.5186 14.4993 90.4154C14.0186 90.3096 13.5509 90.3985 13.096 90.6819C12.6411 90.9654 12.3586 91.3441 12.2486 91.818C12.1276 92.2893 12.2046 92.7457 12.4796 93.187L13.622 95.0201L16.7588 93.0653L15.6163 91.2322Z"/>
<path d="M13.7583 80.7332L12.4361 76.8733L13.1854 76.6167L14.7798 81.2712L6.83315 83.9934L5.25816 79.3956L6.00742 79.139L7.31018 82.942L10.1256 81.9776L8.92003 78.4584L9.66929 78.2017L10.8748 81.7209L13.7583 80.7332Z"/>
<path d="M2.74176 66.3286L3.52704 66.2257L3.86228 68.7838L11.4058 67.7952L11.5149 68.6281L3.97143 69.6167L4.30667 72.1748L3.52138 72.2777L2.74176 66.3286Z"/>
<path d="M5.93139 58.1084C5.97321 57.3576 6.25975 56.7445 6.791 56.2694C7.32225 55.7942 7.96329 55.5775 8.71413 55.6193C9.46496 55.6611 10.078 55.9477 10.5532 56.4789C11.0284 57.0102 11.245 57.6512 11.2032 58.402L11.0364 61.3974L2.64937 60.9302L2.69608 60.0915L5.81126 60.2651L5.93139 58.1084ZM10.4124 58.358C10.4414 57.8388 10.2934 57.4019 9.96865 57.0473C9.63633 56.6842 9.20258 56.4878 8.66741 56.458C8.13224 56.4282 7.68335 56.5755 7.32075 56.8998C6.95061 57.2157 6.75108 57.6332 6.72216 58.1524L6.60203 60.3091L10.2923 60.5147L10.4124 58.358Z"/>
<path d="M11.7076 38.9469C12.0243 38.6353 12.3946 38.4361 12.8185 38.3494C13.238 38.2522 13.659 38.2896 14.0814 38.4613C14.6816 38.7054 15.1071 39.1246 15.3577 39.7187C15.6084 40.3129 15.6116 40.9102 15.3675 41.5104L13.9888 44.9008L6.2076 41.7366L7.48233 38.6019C7.71739 38.0238 8.12529 37.6154 8.70603 37.3766C9.27937 37.1347 9.85135 37.1298 10.422 37.3619C11.1482 37.6572 11.5768 38.1855 11.7076 38.9469ZM8.21599 38.9002L7.25769 41.2568L9.97 42.3598L10.9283 40.0032C11.076 39.64 11.0713 39.2798 10.9144 38.9223C10.7531 38.5545 10.4835 38.2937 10.1055 38.14C9.73501 37.9893 9.36362 37.9894 8.99136 38.1403C8.62211 38.2838 8.36366 38.5371 8.21599 38.9002ZM14.6339 41.2121C14.7906 40.8267 14.7861 40.4449 14.6204 40.0666C14.4503 39.6779 14.1651 39.4022 13.7649 39.2395C13.3722 39.0797 12.9792 39.0797 12.5861 39.2394C12.196 39.3917 11.9226 39.6605 11.7659 40.0458L10.7037 42.6581L13.5716 43.8244L14.6339 41.2121Z"/>
<path d="M21.1393 31.5313L15.4665 27.7097L18.5245 35.4127L18.1222 36.0098L11.1556 31.3166L11.6249 30.62L17.2977 34.4416L14.2397 26.7386L14.642 26.1414L21.6086 30.8346L21.1393 31.5313Z"/>
<path d="M28.6794 22.3562L29.3333 21.7377L30.9825 23.4813L30.3722 24.0585L29.2672 22.8903L24.9082 27.0133L26.0132 28.1815L25.4029 28.7587L23.7537 27.0151L24.2507 26.5451C24.2064 25.695 23.7198 24.7789 22.7907 23.7966L19.6243 20.4489L23.4515 16.8289L28.6794 22.3562ZM24.9742 25.8607L28.0692 22.9334L23.3855 17.9815L20.7788 20.4471L23.4175 23.2368C24.33 24.2016 24.8489 25.0763 24.9742 25.8607Z"/>
<path d="M33.7174 18.6792L37.2227 16.5913L37.628 17.2718L33.401 19.7895L29.1025 12.5726L33.278 10.0856L33.6833 10.7661L30.2295 12.8232L31.7524 15.38L34.9484 13.4764L35.3537 14.1569L32.1577 16.0605L33.7174 18.6792Z"/>
<path d="M49.5751 11.3406C49.0386 12.4005 48.1926 13.1199 47.0371 13.4987C45.8816 13.8775 44.7739 13.7987 43.714 13.2622C42.6517 12.7181 41.9323 11.8721 41.556 10.7242C41.1796 9.57629 41.2597 8.47241 41.7962 7.41252C42.3303 6.34504 43.175 5.62188 44.3305 5.24306C45.486 4.86424 46.5949 4.94688 47.6573 5.491C48.7172 6.02751 49.4353 6.86971 49.8116 8.01759C50.188 9.16548 50.1091 10.2732 49.5751 11.3406ZM44.0933 12.5317C44.9437 12.9685 45.8402 13.0324 46.7829 12.7233C47.7255 12.4143 48.4102 11.832 48.8369 10.9765C49.2611 10.1134 49.32 9.21431 49.0134 8.27928C48.7069 7.34425 48.1284 6.65832 47.278 6.22151C46.4251 5.7771 45.5273 5.70941 44.5847 6.01845C43.6421 6.32749 42.9587 6.91357 42.5344 7.77668C42.1077 8.63219 42.0476 9.52746 42.3542 10.4625C42.6607 11.3975 43.2404 12.0872 44.0933 12.5317Z"/>
<path d="M54.3899 12.838L53.7931 12.8999L57.4538 1.6625L58.0506 1.60063L54.3899 12.838Z"/>
<path d="M68.5073 11.686C67.2462 11.52 66.258 10.9663 65.5427 10.025C64.8274 9.08359 64.5491 8.0101 64.7078 6.8045C64.8664 5.59889 65.413 4.63396 66.3475 3.9097C67.282 3.18544 68.3798 2.9063 69.6409 3.07227C70.4103 3.17352 71.0917 3.45282 71.6851 3.91016C72.2795 4.35956 72.71 4.92053 72.9765 5.59305L72.1825 5.92428C71.9876 5.38221 71.6522 4.92655 71.1763 4.5573C70.7004 4.18805 70.1531 3.96272 69.5345 3.8813C68.4954 3.74455 67.6024 3.96995 66.8553 4.5575C66.1083 5.14505 65.67 5.93058 65.5406 6.9141C65.4111 7.89762 65.6312 8.76979 66.2008 9.53062C66.7704 10.2914 67.5747 10.7402 68.6138 10.877C69.2324 10.9584 69.8194 10.8823 70.3746 10.6488C70.9298 10.4152 71.3717 10.0619 71.7003 9.58869L72.3831 10.1022C71.9596 10.6839 71.3981 11.1183 70.6986 11.4055C70.0071 11.6938 69.2767 11.7873 68.5073 11.686Z"/>
<path d="M87.9635 8.54236L84.8573 16.3469L84.0768 16.0363L86.7127 9.41357L82.1617 12.8976L82.0502 12.8532L81.138 7.1948L78.5021 13.8175L77.7217 13.5069L80.8279 5.70234L81.7979 6.0884L82.6651 11.4706L86.9935 8.15629L87.9635 8.54236Z"/>
<path d="M94.881 21.5463C93.7121 21.7582 92.628 21.5178 91.6286 20.8251C90.6291 20.1324 90.0235 19.2017 89.8116 18.0328C89.6042 16.8573 89.8446 15.7732 90.5327 14.7803C91.2208 13.7874 92.1493 13.1851 93.3182 12.9732C94.4917 12.7547 95.5781 12.9918 96.5775 13.6845C97.577 14.3771 98.1804 15.3112 98.3877 16.4867C98.5996 17.6556 98.3615 18.7364 97.6734 19.7293C96.9853 20.7221 96.0545 21.3278 94.881 21.5463ZM90.6229 17.8943C90.7879 18.836 91.2781 19.5894 92.0934 20.1545C92.9087 20.7195 93.7862 20.914 94.7259 20.7379C95.6701 20.5552 96.4225 20.0595 96.983 19.2508C97.5435 18.442 97.7413 17.5668 97.5763 16.6251C97.4159 15.6769 96.928 14.9202 96.1127 14.3551C95.2974 13.7901 94.4176 13.5989 93.4734 13.7815C92.5337 13.9576 91.7836 14.45 91.2231 15.2588C90.6626 16.0675 90.4625 16.946 90.6229 17.8943Z"/>
<path d="M107.088 23.4016L106.516 23.9501L104.729 22.089L99.2412 27.3578L98.6595 26.7519L104.148 21.483L102.361 19.6219L102.932 19.0734L107.088 23.4016Z"/>
<path d="M112.088 30.3435C112.487 30.9812 112.606 31.6474 112.445 32.3419C112.285 33.0363 111.886 33.5828 111.248 33.9812C110.61 34.3796 109.944 34.4987 109.25 34.3382C108.555 34.1778 108.009 33.7787 107.61 33.141L106.466 31.3091L103.82 32.9621L103.375 32.2497L110.499 27.7992L112.088 30.3435ZM108.282 32.7213C108.558 33.1624 108.93 33.4342 109.4 33.5369C109.881 33.6422 110.348 33.5528 110.803 33.2688C111.258 32.9848 111.54 32.6058 111.649 32.1318C111.77 31.6603 111.692 31.2041 111.417 30.7631L110.272 28.9312L107.138 30.8894L108.282 32.7213Z"/>
<path d="M110.15 43.2162L111.477 47.0746L110.728 47.3321L109.128 42.6794L117.072 39.9484L118.652 44.5444L117.903 44.8019L116.596 41.0003L113.782 41.9678L114.991 45.4857L114.242 45.7432L113.033 42.2253L110.15 43.2162Z"/>
<path d="M121.183 57.6089L120.398 57.7127L120.06 55.1549L112.518 56.1517L112.408 55.319L119.95 54.3222L119.612 51.7644L120.397 51.6606L121.183 57.6089Z"/>
<path d="M118.002 65.8337C117.961 66.5845 117.675 67.1979 117.145 67.6736C116.614 68.1494 115.973 68.3668 115.222 68.3258C114.471 68.2848 113.858 67.9989 113.382 67.4682C112.907 66.9375 112.689 66.2967 112.73 65.5458L112.894 62.5502L121.281 63.0082L121.235 63.847L118.12 63.6769L118.002 65.8337ZM113.521 65.589C113.493 66.1082 113.641 66.5449 113.966 66.8992C114.299 67.2619 114.733 67.4578 115.268 67.487C115.803 67.5163 116.252 67.3685 116.614 67.0438C116.984 66.7275 117.183 66.3097 117.211 65.7905L117.329 63.6337L113.639 63.4322L113.521 65.589Z"/>
<path d="M112.247 85.0016C111.93 85.3136 111.56 85.5132 111.136 85.6004C110.717 85.698 110.296 85.6611 109.873 85.4898C109.273 85.2464 108.847 84.8277 108.596 84.2338C108.344 83.6399 108.34 83.0427 108.584 82.4421L109.959 79.0502L117.743 82.2059L116.472 85.342C116.238 85.9203 115.83 86.3292 115.25 86.5687C114.677 86.8111 114.105 86.8167 113.534 86.5852C112.807 86.2907 112.378 85.7628 112.247 85.0016ZM115.738 85.0445L116.694 82.6868L113.98 81.5868L113.025 83.9445C112.877 84.3078 112.882 84.6681 113.04 85.0253C113.201 85.393 113.471 85.6535 113.849 85.8068C114.22 85.957 114.592 85.9565 114.964 85.8052C115.333 85.6614 115.591 85.4078 115.738 85.0445ZM109.318 82.7397C109.161 83.1252 109.166 83.507 109.333 83.8851C109.503 84.2736 109.789 84.549 110.189 84.7113C110.582 84.8706 110.975 84.8702 111.368 84.7101C111.758 84.5574 112.031 84.2883 112.187 83.9027L113.246 81.2893L110.377 80.1262L109.318 82.7397Z"/>
<path d="M102.824 92.4279L108.501 96.2433L105.434 88.5437L105.836 87.9461L112.808 92.6316L112.339 93.3288L106.662 89.5134L109.728 97.2131L109.327 97.8107L102.355 93.1251L102.824 92.4279Z"/>
<path d="M95.2933 101.61L94.6401 102.229L92.989 100.488L93.5986 99.9097L94.7049 101.077L99.0594 96.9489L97.9531 95.7819L98.5628 95.204L100.214 96.9458L99.7175 97.4164C99.7626 98.2664 100.25 99.1821 101.18 100.163L104.351 103.508L100.527 107.132L95.2933 101.61ZM98.9946 98.1016L95.9029 101.032L100.592 105.979L103.196 103.511L100.554 100.724C99.6407 99.76 99.1208 98.8859 98.9946 98.1016Z"/>
<path d="M90.2584 105.293L86.7553 107.385L86.3493 106.705L90.5735 104.182L94.8799 111.395L90.7072 113.886L90.3012 113.206L93.7527 111.145L92.227 108.59L89.033 110.497L88.627 109.817L91.821 107.91L90.2584 105.293Z"/>
<path d="M74.4095 112.649C74.9449 111.589 75.7901 110.869 76.9451 110.489C78.1002 110.109 79.208 110.186 80.2684 110.722C81.3314 111.264 82.0517 112.11 82.4293 113.257C82.8069 114.405 82.728 115.509 82.1927 116.569C81.6598 117.637 80.8158 118.361 79.6608 118.741C78.5057 119.121 77.3967 119.04 76.3337 118.497C75.2732 117.962 74.5542 117.12 74.1766 115.973C73.799 114.825 73.8767 113.718 74.4095 112.649ZM79.89 111.452C79.0391 111.017 78.1425 110.954 77.2002 111.264C76.2579 111.574 75.5739 112.157 75.1481 113.013C74.7248 113.876 74.667 114.776 74.9745 115.71C75.2821 116.645 75.8613 117.33 76.7122 117.766C77.5656 118.21 78.4634 118.276 79.4057 117.966C80.348 117.656 81.0308 117.069 81.4541 116.206C81.8799 115.35 81.939 114.454 81.6314 113.52C81.3238 112.585 80.7433 111.896 79.89 111.452Z"/>
<path d="M69.593 111.159L70.1897 111.096L66.5413 122.338L65.9446 122.4L69.593 111.159Z"/>
</symbol><symbol id="icon-play" viewBox="0 0 40 40">
<path d="M40 20L10 37.3205L10 2.67949L40 20Z"/>
</symbol><symbol id="icon-star" viewBox="0 0 18 16">
<path d="M8.53834 1.41194C8.70914 1.0013 9.29086 1.0013 9.46166 1.41194L10.9488 4.98748C11.1648 5.50683 11.6532 5.86169 12.2139 5.90664L16.074 6.2161C16.5173 6.25164 16.6971 6.80489 16.3593 7.09423L13.4184 9.61349C12.9912 9.97942 12.8046 10.5536 12.9351 11.1007L13.8336 14.8675C13.9368 15.3001 13.4662 15.642 13.0867 15.4102L9.78188 13.3917C9.30186 13.0985 8.69814 13.0985 8.21812 13.3917L4.91334 15.4102C4.53379 15.6421 4.06317 15.3001 4.16636 14.8675L5.06488 11.1007C5.19539 10.5536 5.00883 9.97942 4.58165 9.61349L1.64067 7.09423C1.3029 6.80489 1.48266 6.25164 1.92599 6.2161L5.78608 5.90663C6.34677 5.86169 6.83518 5.50683 7.05119 4.98748L8.53834 1.41194Z" stroke="#7D9C9E"/>
</symbol><symbol id="icon-telegram" viewBox="0 0 16 16">
<path d="M1.26494 8.23244L4.72124 9.52244L6.05904 13.8248C6.14464 14.1003 6.48159 14.2022 6.70524 14.0193L8.63184 12.4487C8.83379 12.2842 9.12144 12.276 9.33249 12.4292L12.8074 14.952C13.0466 15.1259 13.3856 14.9948 13.4456 14.7057L15.9911 2.46119C16.0566 2.14539 15.7463 1.88194 15.4456 1.99824L1.26089 7.47029C0.910844 7.60529 0.913894 8.10089 1.26494 8.23244ZM5.84344 8.83574L12.5983 4.67539C12.7197 4.60084 12.8446 4.76499 12.7404 4.86169L7.16564 10.0437C6.96969 10.2261 6.84329 10.4702 6.80749 10.7351L6.61759 12.1424C6.59244 12.3303 6.32849 12.349 6.27664 12.1671L5.54629 9.60089C5.46264 9.30819 5.58454 8.99554 5.84344 8.83574Z"/>
</symbol><symbol id="icon-vk" viewBox="0 0 16 16">
<path d="M10.456 0H5.544C1.06133 0 0 1.06133 0 5.544V10.456C0 14.9387 1.06133 16 5.544 16H10.456C14.9387 16 16 14.9387 16 10.456V5.544C16 1.06133 14.9273 0 10.456 0ZM12.9173 11.4153H11.7547C11.3147 11.4153 11.1787 11.0653 10.388 10.264C9.69933 9.59733 9.39467 9.50733 9.22533 9.50733C8.988 9.50733 8.92 9.57533 8.92 9.90267V10.9527C8.92 11.2353 8.83 11.4047 8.08467 11.4047C6.854 11.4047 5.48733 10.6593 4.528 9.27C3.08267 7.238 2.68667 5.71333 2.68667 5.39733C2.68667 5.228 2.75467 5.07 3.082 5.07H4.24467C4.538 5.07 4.65133 5.20533 4.76467 5.52133C5.34 7.18133 6.3 8.638 6.69533 8.638C6.842 8.638 6.91 8.57 6.91 8.198V6.48067C6.86467 5.69 6.44667 5.62267 6.44667 5.34067C6.44667 5.20467 6.56 5.06933 6.74 5.06933H8.56933C8.818 5.06933 8.908 5.20467 8.908 5.498V7.81333C8.908 8.06133 9.02133 8.152 9.08867 8.152C9.23533 8.152 9.36 8.06133 9.63067 7.79067C10.4667 6.85333 11.0647 5.408 11.0647 5.408C11.144 5.23867 11.2793 5.08067 11.5733 5.08067H12.736C13.086 5.08067 13.1653 5.26067 13.086 5.50933C12.9393 6.18733 11.5167 8.19667 11.5167 8.19667C11.3927 8.4 11.3473 8.49 11.5167 8.71667C11.6407 8.886 12.0473 9.236 12.3187 9.552C12.8153 10.1167 13.1987 10.5907 13.3007 10.9187C13.414 11.2453 13.244 11.4147 12.9167 11.4147L12.9173 11.4153Z" fill="white"/>
</symbol><symbol id="icon-whatsapp"><g clip-path="url(#clip0)"><path d="M11.648 9.588c-.198-.1-1.172-.578-1.353-.645-.182-.066-.314-.098-.447.1-.131.198-.511.644-.627.776-.115.133-.23.149-.429.05-.198-.1-.837-.308-1.593-.983a5.964 5.964 0 01-1.102-1.373c-.116-.198-.012-.305.086-.404.09-.088.2-.231.298-.346.1-.116.132-.199.198-.332.066-.132.034-.247-.016-.346-.05-.1-.446-1.075-.61-1.472-.162-.386-.326-.333-.447-.34a8.538 8.538 0 00-.38-.006.726.726 0 00-.528.248c-.181.198-.693.677-.693 1.652 0 .975.71 1.917.808 2.05.1.132 1.398 2.133 3.385 2.991.473.204.841.326 1.13.417.474.151.906.13 1.247.078.38-.056 1.172-.479 1.337-.942.165-.462.165-.859.115-.942-.049-.082-.18-.132-.38-.231h.001zm-3.615 4.935h-.002a6.58 6.58 0 01-3.354-.918l-.24-.143-2.495.655.665-2.432-.156-.25A6.574 6.574 0 011.444 7.93a6.599 6.599 0 016.592-6.59c1.76 0 3.415.687 4.659 1.932a6.552 6.552 0 011.928 4.663c-.002 3.633-2.958 6.59-6.59 6.59zm5.61-12.198A7.877 7.877 0 008.032 0C3.663 0 .107 3.557.105 7.928c0 1.397.364 2.761 1.058 3.963L.038 16l4.203-1.103a7.923 7.923 0 003.79.966h.002c4.37 0 7.927-3.557 7.93-7.929a7.882 7.882 0 00-2.32-5.609z"/></g></symbol><symbol id="icon-youtube" viewBox="0 0 20 14">
<path fill-rule="evenodd" clip-rule="evenodd" d="M17.349 0.417968C18.1872 0.647952 18.8472 1.3256 19.0712 2.18615C19.4783 3.74579 19.4783 7 19.4783 7C19.4783 7 19.4783 10.2541 19.0712 11.8139C18.8472 12.6744 18.1872 13.352 17.349 13.5821C15.8302 14 9.73913 14 9.73913 14C9.73913 14 3.64808 14 2.12911 13.5821C1.29099 13.352 0.630941 12.6744 0.406941 11.8139C0 10.2541 0 7 0 7C0 7 0 3.74579 0.406941 2.18615C0.630941 1.3256 1.29099 0.647952 2.12911 0.417968C3.64808 0 9.73913 0 9.73913 0C9.73913 0 15.8302 0 17.349 0.417968ZM7.91289 4.26107V10.348L12.7825 7.30466L7.91289 4.26107Z"/>
</symbol></svg>