<svg width="255" height="99" viewBox="0 0 255 99" fill="none" xmlns="http://www.w3.org/2000/svg">
<path d="M112.219 49.9958C112.219 59.5505 104.681 66.5913 95.4302 66.5913C86.1787 66.5913 78.6406 59.5505 78.6406 49.9958C78.6406 40.3738 86.1787 33.4004 95.4302 33.4004C104.681 33.4004 112.219 40.3738 112.219 49.9958ZM104.87 49.9958C104.87 44.025 100.501 39.9398 95.4302 39.9398C90.3597 39.9398 85.9905 44.025 85.9905 49.9958C85.9905 55.9067 90.3597 60.0518 95.4302 60.0518C100.501 60.0518 104.87 55.8992 104.87 49.9958Z" fill="#EA4335"/>
<path d="M148.439 49.9958C148.439 59.5505 140.901 66.5913 131.65 66.5913C122.398 66.5913 114.86 59.5505 114.86 49.9958C114.86 40.3812 122.398 33.4004 131.65 33.4004C140.901 33.4004 148.439 40.3738 148.439 49.9958ZM141.09 49.9958C141.09 44.025 136.72 39.9398 131.65 39.9398C126.579 39.9398 122.21 44.025 122.21 49.9958C122.21 55.9067 126.579 60.0518 131.65 60.0518C136.72 60.0518 141.09 55.8992 141.09 49.9958Z" fill="#FBBC05"/>
<path d="M183.15 34.403V64.197C183.15 76.4528 175.86 81.4582 167.243 81.4582C159.131 81.4582 154.249 76.0787 152.408 71.6791L158.807 69.0379C159.946 71.739 162.739 74.9264 167.235 74.9264C172.751 74.9264 176.17 71.552 176.17 65.1996V62.8127H175.913C174.268 64.8255 171.099 66.5838 167.1 66.5838C158.732 66.5838 151.065 59.356 151.065 50.0557C151.065 40.688 158.732 33.4004 167.1 33.4004C171.091 33.4004 174.26 35.1586 175.913 37.1115H176.17V34.4104H183.15V34.403ZM176.691 50.0557C176.691 44.2121 172.759 39.9398 167.756 39.9398C162.686 39.9398 158.437 44.2121 158.437 50.0557C158.437 55.8394 162.686 60.0518 167.756 60.0518C172.759 60.0518 176.691 55.8394 176.691 50.0557Z" fill="#4285F4"/>
<path d="M194.657 16.9395V65.5736H187.488V16.9395H194.657Z" fill="#34A853"/>
<path d="M222.591 55.4575L228.296 59.2285C226.454 61.9296 222.017 66.5835 214.351 66.5835C204.844 66.5835 197.743 59.2959 197.743 49.988C197.743 40.119 204.903 33.3926 213.528 33.3926C222.214 33.3926 226.462 40.2462 227.85 43.9499L228.612 45.8354L206.239 55.0235C207.952 58.3531 210.616 60.0515 214.351 60.0515C218.093 60.0515 220.689 58.2259 222.591 55.4575ZM205.032 49.4867L219.988 43.3289C219.166 41.2564 216.69 39.8123 213.778 39.8123C210.042 39.8123 204.844 43.082 205.032 49.4867Z" fill="#EA4335"/>
<path d="M51.5067 45.6789V38.6381H75.4342C75.6681 39.8653 75.7888 41.3168 75.7888 42.888C75.7888 48.1704 74.3325 54.7023 69.6391 59.3563C65.0739 64.0701 59.2411 66.584 51.5142 66.584C37.1924 66.584 25.1494 55.0166 25.1494 40.8154C25.1494 26.6143 37.1924 15.0469 51.5142 15.0469C59.4372 15.0469 65.0814 18.1295 69.3221 22.1474L64.3117 27.1156C61.2709 24.2874 57.1509 22.0876 51.5067 22.0876C41.0483 22.0876 32.8687 30.4452 32.8687 40.8154C32.8687 51.1857 41.0483 59.5433 51.5067 59.5433C58.2902 59.5433 62.1537 56.8423 64.6287 54.3881C66.6358 52.3979 67.9564 49.5546 68.477 45.6714L51.5067 45.6789Z" fill="#4285F4"/>
</svg>
