<svg width="128" height="24" viewBox="0 0 128 24" fill="none" xmlns="http://www.w3.org/2000/svg">
<path d="M11.0767 2.21993C11.4183 1.39864 12.5817 1.39864 12.9233 2.21993L14.9395 7.06735C15.0835 7.41358 15.4091 7.65015 15.7829 7.68012L21.0161 8.09966C21.9027 8.17074 22.2623 9.27725 21.5867 9.85592L17.5996 13.2713C17.3148 13.5153 17.1904 13.8981 17.2774 14.2628L18.4956 19.3695C18.702 20.2348 17.7607 20.9186 17.0016 20.455L12.5213 17.7184C12.2012 17.5229 11.7988 17.5229 11.4787 17.7184L6.9984 20.455C6.2393 20.9186 5.29805 20.2348 5.50444 19.3695L6.72257 14.2628C6.80958 13.8981 6.68521 13.5153 6.40042 13.2713L2.41328 9.85592C1.73774 9.27725 2.09727 8.17074 2.98392 8.09966L8.21712 7.68012C8.59091 7.65015 8.91652 7.41358 9.06052 7.06735L11.0767 2.21993Z" fill="#7D9C9E"/>
<path d="M37.0767 2.21993C37.4183 1.39864 38.5817 1.39864 38.9233 2.21993L40.9395 7.06735C41.0835 7.41358 41.4091 7.65015 41.7829 7.68012L47.0161 8.09966C47.9027 8.17074 48.2623 9.27725 47.5867 9.85592L43.5996 13.2713C43.3148 13.5153 43.1904 13.8981 43.2774 14.2628L44.4956 19.3695C44.702 20.2348 43.7607 20.9186 43.0016 20.455L38.5213 17.7184C38.2012 17.5229 37.7988 17.5229 37.4787 17.7184L32.9984 20.455C32.2393 20.9186 31.298 20.2348 31.5044 19.3695L32.7226 14.2628C32.8096 13.8981 32.6852 13.5153 32.4004 13.2713L28.4133 9.85592C27.7377 9.27725 28.0973 8.17074 28.9839 8.09966L34.2171 7.68012C34.5909 7.65015 34.9165 7.41358 35.0605 7.06735L37.0767 2.21993Z" fill="#7D9C9E"/>
<path d="M63.0767 2.21993C63.4183 1.39864 64.5817 1.39864 64.9233 2.21993L66.9395 7.06735C67.0835 7.41358 67.4091 7.65015 67.7829 7.68012L73.0161 8.09966C73.9027 8.17074 74.2623 9.27725 73.5867 9.85592L69.5996 13.2713C69.3148 13.5153 69.1904 13.8981 69.2774 14.2628L70.4956 19.3695C70.702 20.2348 69.7607 20.9186 69.0016 20.455L64.5213 17.7184C64.2012 17.5229 63.7988 17.5229 63.4787 17.7184L58.9984 20.455C58.2393 20.9186 57.298 20.2348 57.5044 19.3695L58.7226 14.2628C58.8096 13.8981 58.6852 13.5153 58.4004 13.2713L54.4133 9.85592C53.7377 9.27725 54.0973 8.17074 54.9839 8.09966L60.2171 7.68012C60.5909 7.65015 60.9165 7.41358 61.0605 7.06735L63.0767 2.21993Z" fill="#7D9C9E"/>
<path d="M89.0767 2.21993C89.4183 1.39864 90.5817 1.39864 90.9233 2.21993L92.9395 7.06735C93.0835 7.41358 93.4091 7.65015 93.7829 7.68012L99.0161 8.09966C99.9027 8.17074 100.262 9.27725 99.5867 9.85592L95.5996 13.2713C95.3148 13.5153 95.1904 13.8981 95.2774 14.2628L96.4956 19.3695C96.702 20.2348 95.7607 20.9186 95.0016 20.455L90.5213 17.7184C90.2012 17.5229 89.7988 17.5229 89.4787 17.7184L84.9984 20.455C84.2393 20.9186 83.298 20.2348 83.5044 19.3695L84.7226 14.2628C84.8096 13.8981 84.6852 13.5153 84.4004 13.2713L80.4133 9.85592C79.7377 9.27725 80.0973 8.17074 80.9839 8.09966L86.2171 7.68012C86.5909 7.65015 86.9165 7.41358 87.0605 7.06735L89.0767 2.21993Z" fill="#7D9C9E"/>
<path d="M115.077 2.21993C115.418 1.39864 116.582 1.39864 116.923 2.21993L118.939 7.06735C119.083 7.41358 119.409 7.65015 119.783 7.68012L125.016 8.09966C125.903 8.17074 126.262 9.27725 125.587 9.85592L121.6 13.2713C121.315 13.5153 121.19 13.8981 121.277 14.2628L122.496 19.3695C122.702 20.2348 121.761 20.9186 121.002 20.455L116.521 17.7184C116.201 17.5229 115.799 17.5229 115.479 17.7184L110.998 20.455C110.239 20.9186 109.298 20.2348 109.504 19.3695L110.723 14.2628C110.81 13.8981 110.685 13.5153 110.4 13.2713L106.413 9.85592C105.738 9.27725 106.097 8.17074 106.984 8.09966L112.217 7.68012C112.591 7.65015 112.917 7.41358 113.061 7.06735L115.077 2.21993Z" fill="#7D9C9E"/>
</svg>
