<svg width="101" height="21" viewBox="0 0 101 21" fill="none" xmlns="http://www.w3.org/2000/svg">
<path d="M5.19043 0.253422C6.62332 0.253422 7.80469 0.72187 8.73455 1.65877C9.67965 2.5803 10.1522 3.74758 10.1522 5.16061C10.1522 6.57363 9.67965 7.74859 8.73455 8.68548C7.80469 9.62238 6.62332 10.0908 5.19043 10.0908H0.846017V16.3803H0V0.253422H5.19043ZM5.19043 9.30752C6.37942 9.30752 7.36263 8.91587 8.14005 8.13256C8.91747 7.34926 9.30618 6.3586 9.30618 5.16061C9.30618 3.97797 8.91747 2.99499 8.14005 2.21169C7.36263 1.42838 6.37942 1.03673 5.19043 1.03673H0.846017V9.30752H5.19043Z" fill="black"/>
<path d="M24.6947 16.3803H23.7572L19.8015 9.63006H14.1767V16.3803H13.3307V0.253422H19.5957C20.8762 0.253422 21.9661 0.714191 22.8655 1.63573C23.7801 2.54191 24.2374 3.64007 24.2374 4.93022C24.2374 6.02071 23.902 6.996 23.2313 7.8561C22.5606 8.70084 21.707 9.25377 20.6704 9.51487L24.6947 16.3803ZM14.1767 8.84675H19.5957C20.6323 8.84675 21.5241 8.46278 22.271 7.69483C23.0179 6.92689 23.3914 6.00535 23.3914 4.93022C23.3914 3.8551 23.0179 2.94124 22.271 2.18865C21.5241 1.4207 20.6323 1.03673 19.5957 1.03673H14.1767V8.84675Z" fill="black"/>
<path d="M40.6133 14.2147C39.0127 15.8274 37.0691 16.6337 34.7826 16.6337C32.4961 16.6337 30.5449 15.8274 28.9291 14.2147C27.3285 12.5867 26.5282 10.6207 26.5282 8.31687C26.5282 6.01303 27.3285 4.05476 28.9291 2.44207C30.5449 0.814024 32.4961 0 34.7826 0C37.0691 0 39.0127 0.814024 40.6133 2.44207C42.2291 4.05476 43.037 6.01303 43.037 8.31687C43.037 10.6207 42.2291 12.5867 40.6133 14.2147ZM29.5236 13.6387C30.9717 15.0978 32.7247 15.8274 34.7826 15.8274C36.8405 15.8274 38.5859 15.0978 40.0188 13.6387C41.4669 12.1643 42.191 10.3903 42.191 8.31687C42.191 6.24341 41.4669 4.47713 40.0188 3.01803C38.5859 1.54357 36.8405 0.806344 34.7826 0.806344C32.7247 0.806344 30.9717 1.54357 29.5236 3.01803C28.0907 4.47713 27.3742 6.24341 27.3742 8.31687C27.3742 10.3903 28.0907 12.1643 29.5236 13.6387Z" fill="black"/>
<path d="M45.3537 16.6107C45.1403 16.6107 44.9497 16.5339 44.7821 16.3803C44.6296 16.2267 44.5534 16.0347 44.5534 15.8044C44.5534 15.574 44.6296 15.382 44.7821 15.2284C44.9497 15.0748 45.1403 14.998 45.3537 14.998C45.5824 14.998 45.7729 15.0748 45.9253 15.2284C46.0778 15.382 46.154 15.574 46.154 15.8044C46.154 16.0347 46.0778 16.2267 45.9253 16.3803C45.7729 16.5339 45.5824 16.6107 45.3537 16.6107Z" fill="black"/>
<path d="M61.0957 10.4134C61.8427 10.613 62.4143 10.9816 62.8106 11.5192C63.2222 12.0414 63.428 12.6558 63.428 13.3623C63.428 14.2685 63.0622 15.0441 62.3305 15.6892C61.614 16.3189 60.608 16.6337 59.3123 16.6337C56.9952 16.6337 55.5395 15.7352 54.945 13.9382L55.6081 13.5466C56.0806 15.0825 57.3153 15.8504 59.3123 15.8504C60.3336 15.8504 61.1415 15.62 61.736 15.1593C62.3305 14.6985 62.6277 14.0918 62.6277 13.3392C62.6277 12.602 62.3686 12.0107 61.8503 11.5653C61.332 11.1045 60.6384 10.8741 59.7696 10.8741H58.3062V10.1139H59.358C60.1964 10.1139 60.8519 9.89884 61.3244 9.46879C61.8122 9.03874 62.0561 8.47046 62.0561 7.76395C62.0561 7.07279 61.7817 6.50451 61.2329 6.0591C60.6842 5.6137 59.9753 5.39099 59.1065 5.39099C58.2986 5.39099 57.605 5.56762 57.0257 5.92087C56.4617 6.27413 56.0578 6.75794 55.8139 7.37229L55.1508 6.98064C55.4556 6.25877 55.9434 5.68281 56.6141 5.25276C57.2849 4.82271 58.1156 4.60768 59.1065 4.60768C60.2497 4.60768 61.1643 4.91486 61.8503 5.52922C62.5363 6.12822 62.8792 6.85777 62.8792 7.71787C62.8792 8.31687 62.7268 8.86211 62.4219 9.3536C62.1171 9.82973 61.675 10.183 61.0957 10.4134Z" fill="black"/>
<path d="M74.284 4.86111H75.1072L70.1454 17.4401C69.6881 18.5766 69.0631 19.4675 68.2705 20.1125C67.4778 20.773 66.6165 21.0648 65.6867 20.988V20.2277C66.4488 20.3045 67.1501 20.0741 67.7903 19.5366C68.4458 18.999 68.9717 18.2387 69.368 17.2558L69.5966 16.7489L64.2233 4.86111H65.0464L69.9854 15.7583L74.284 4.86111Z" fill="black"/>
<path d="M81.8349 16.6337C80.1886 16.6337 78.8243 16.0962 77.7421 15.0211C76.6598 13.9306 76.1186 12.5022 76.1186 10.7359C76.1186 8.84675 76.3854 7.37997 76.9189 6.33557C77.4677 5.2758 78.5881 4.33122 80.2801 3.50184C80.6764 3.30217 81.1566 3.08715 81.7206 2.85676C82.2999 2.61102 82.7495 2.41135 83.0697 2.25776C83.405 2.10418 83.748 1.91987 84.0986 1.70484C84.4492 1.48982 84.716 1.25175 84.8989 0.990652C85.0971 0.714191 85.2266 0.391653 85.2876 0.0230381L85.9278 0.391654C85.8516 0.790986 85.7068 1.15192 85.4934 1.47446C85.28 1.78164 84.9751 2.0581 84.5788 2.30384C84.1977 2.53423 83.8395 2.73389 83.5041 2.90284C83.1688 3.05643 82.7038 3.2561 82.1093 3.50184C81.5148 3.74758 81.0423 3.95493 80.6917 4.12388C79.4874 4.70752 78.6109 5.34491 78.0622 6.03607C77.5134 6.72722 77.1704 7.67179 77.0332 8.86979C77.582 7.90218 78.3061 7.17263 79.2054 6.68114C80.12 6.1743 81.0651 5.92087 82.0407 5.92087C83.5498 5.92087 84.815 6.42772 85.8364 7.44141C86.8577 8.4551 87.3683 9.73757 87.3683 11.2888C87.3683 12.8401 86.8501 14.1226 85.8135 15.1362C84.7769 16.1346 83.4508 16.6337 81.8349 16.6337ZM81.8349 15.8504C83.2221 15.8504 84.3577 15.4281 85.2419 14.5833C86.126 13.7232 86.5681 12.6251 86.5681 11.2888C86.5681 9.9526 86.1336 8.85443 85.2647 7.99433C84.4111 7.11887 83.3136 6.68114 81.9721 6.68114C80.7526 6.68114 79.6551 7.08047 78.6795 7.87914C77.7192 8.66245 77.1399 9.66078 76.9418 10.8741C76.9418 12.3332 77.3991 13.5312 78.3137 14.4681C79.2283 15.3897 80.402 15.8504 81.8349 15.8504Z" fill="black"/>
<path d="M94.5291 9.42271C95.5657 9.42271 96.4498 9.74525 97.1815 10.3903C97.9132 11.02 98.279 11.8494 98.279 12.8785C98.279 13.9075 97.9132 14.7523 97.1815 15.4127C96.4498 16.0578 95.5657 16.3803 94.5291 16.3803H90.1161V4.86111H90.9393V9.42271H94.5291ZM100.177 4.86111H101V16.3803H100.177V4.86111ZM94.5291 15.62C95.3675 15.62 96.0687 15.3666 96.6327 14.8598C97.1967 14.3376 97.4787 13.6771 97.4787 12.8785C97.4787 12.0952 97.1967 11.4501 96.6327 10.9432C96.0687 10.4364 95.3675 10.183 94.5291 10.183H90.9393V15.62H94.5291Z" fill="black"/>
</svg>
