<svg width="32" height="25" viewBox="0 0 32 25" fill="none" xmlns="http://www.w3.org/2000/svg">
<path opacity="0.2" d="M18.7148 25C25.6184 25 31.2148 19.4036 31.2148 12.5C31.2148 5.59644 25.6184 0 18.7148 0C11.8113 0 6.21484 5.59644 6.21484 12.5C6.21484 19.4036 11.8113 25 18.7148 25Z" fill="#7D9C9E"/>
<g clip-path="url(#clip0_2601_4542)">
<path d="M11 1C4.93435 1 0 5.93435 0 12C0 14.0693 0.574962 16.078 1.66565 17.8224C1.23115 19.3446 0.446346 22.2241 0.437885 22.2541C0.397269 22.403 0.440846 22.5621 0.552115 22.6692C0.663385 22.7762 0.824154 22.8143 0.970538 22.7694L5.33077 21.4283C7.03873 22.4572 8.99462 23 11 23C17.0657 23 22 18.0657 22 12C22 5.93435 17.0657 1 11 1ZM11 22.1538C9.08812 22.1538 7.22573 21.6195 5.61381 20.6092C5.54569 20.5665 5.46742 20.5449 5.38915 20.5449C5.34727 20.5449 5.30538 20.5512 5.26477 20.5635L1.4575 21.7354C1.73715 20.7145 2.23977 18.8885 2.53127 17.8727C2.56512 17.7551 2.54608 17.6282 2.47965 17.5254C1.41096 15.8809 0.846154 13.9703 0.846154 12C0.846154 6.40142 5.40142 1.84615 11 1.84615C16.5986 1.84615 21.1538 6.40142 21.1538 12C21.1538 17.5986 16.5986 22.1538 11 22.1538Z" fill="#4A4A4A"/>
<path d="M18.1878 14.5927C17.4068 14.159 16.7417 13.7241 16.2565 13.4068C15.8858 13.1648 15.618 12.99 15.4217 12.8915C14.873 12.6177 14.4571 12.8111 14.2989 12.971C14.279 12.9909 14.2612 13.0125 14.246 13.0353C13.6761 13.8903 12.9319 14.7082 12.714 14.7522C12.4623 14.7128 11.284 14.0431 10.113 13.0679C8.91734 12.0715 8.16511 11.1175 8.05469 10.4677C8.82173 9.67819 9.098 9.1815 9.098 8.61627C9.098 8.0337 7.73908 5.60143 7.49327 5.35562C7.24661 5.10939 6.69111 5.07089 5.842 5.24012C5.76035 5.25662 5.68504 5.29681 5.62581 5.35562C5.523 5.45843 3.11738 7.911 4.26054 10.8835C5.51538 14.1459 8.73627 17.9379 12.8427 18.5539C13.3093 18.6237 13.7468 18.6584 14.1563 18.6584C16.5721 18.6584 17.9978 17.4429 18.3993 15.0318C18.4294 14.8554 18.3443 14.6794 18.1878 14.5927ZM12.9683 17.7171C8.62585 17.066 5.89065 12.7637 5.05042 10.5798C4.21696 8.41362 5.754 6.48227 6.13985 6.04566C6.45377 5.99235 6.78419 5.96993 6.92211 5.9915C7.21023 6.39216 8.20784 8.27696 8.25184 8.61627C8.25184 8.83839 8.1795 9.14766 7.31811 10.0095C7.23858 10.0886 7.19415 10.196 7.19415 10.3086C7.19415 12.5238 11.8666 15.597 12.6942 15.597C13.4138 15.597 14.3522 14.3875 14.8865 13.5993C14.9174 13.6005 14.9695 13.6111 15.0435 13.6483C15.1958 13.7249 15.4598 13.8971 15.7936 14.1154C16.2345 14.4035 16.82 14.786 17.5113 15.1824C17.1974 16.6928 16.3199 18.2205 12.9683 17.7171Z" fill="#4A4A4A"/>
</g>
<defs>
<clipPath id="clip0_2601_4542">
<rect width="22" height="22" fill="white" transform="translate(0 1)"/>
</clipPath>
</defs>
</svg>
