<svg width="255" height="99" viewBox="0 0 255 99" fill="none" xmlns="http://www.w3.org/2000/svg">
<path d="M115.762 49.5C115.762 45.505 114.968 41.6935 113.578 38.1563C113.208 49.792 100.768 58.8038 93.4638 64.7677H111.748C114.305 60.2124 115.762 55.0199 115.762 49.5ZM102.544 23.8771C96.757 19.5902 89.4988 17.0156 81.5915 17.0156C62.7213 17.0156 47.4238 31.5592 47.4238 49.5C47.4238 67.4408 62.7213 81.9844 81.5915 81.9844C90.2358 81.9844 98.1051 78.9131 104.119 73.882H79.3805L79.3074 66.9732C94.2124 54.655 103.35 46.3238 103.35 38.2766C103.35 35.2858 102.152 31.5119 96.7609 31.5119C92.492 31.5119 88.3715 33.8635 89.1187 43.6881H80.4323C78.2578 32.297 84.7751 23.2498 97.2095 23.2498C99.1328 23.2498 100.919 23.4707 102.544 23.8771Z" fill="#AFCA0B"/>
<path d="M147.456 39.4691H155.539C155.814 33.6237 153.743 24.3633 140.41 24.3633C130.601 24.3633 123.482 29.9463 123.482 41.5702C123.482 43.1464 123.552 51.2903 123.552 56.3486C123.552 68.9568 132.742 71.7168 140.479 71.7168C145.108 71.7168 151.807 70.7304 154.917 67.5127V47.4157H139.72V54.7072H146.49V63.571C141.377 65.2124 132.051 65.8713 132.051 54.7072V41.5702C132.051 33.7559 135.851 31.061 140.062 31.061C144.417 31.061 147.456 33.1641 147.456 39.4691ZM207.573 58.9763C207.921 40.9804 186.23 46.956 186.436 36.9065C186.504 33.3613 188.923 31.061 192.86 31.061C197.072 31.061 199.561 33.4264 199.49 39.6013H207.435C207.644 34.0163 206.264 24.4935 193.139 24.4935C184.986 24.4935 178.284 28.305 178.146 36.7763C177.8 54.0483 199.629 48.402 199.283 58.8422C199.145 63.1113 195.899 65.0152 192.237 65.0152C187.955 65.0152 184.501 62.6517 185.192 55.5594H177.177C176.281 64.95 180.634 71.6517 192.169 71.6517C201.909 71.6517 207.435 66.5263 207.573 58.9763ZM171.081 71.0579H162.929V25.0854H171.081V71.0579ZM171.081 71.0579H162.929V25.0854H171.081V71.0579Z" fill="#3C3C3B"/>
</svg>
