<svg width="256" height="256" viewBox="0 0 256 256" fill="none" xmlns="http://www.w3.org/2000/svg">
<path d="M255.706 152.222L230.106 37.0224C229.469 34.1801 227.884 31.6391 225.611 29.8175C223.338 27.9959 220.513 27.0023 217.6 27H179.2V52.6H207.334L219.635 107.973C212.887 105.243 205.679 103.826 198.4 103.8C173.402 103.8 152.282 119.902 144.333 142.2H111.654C103.706 119.902 82.5856 103.8 57.5872 103.8C50.0736 103.8 42.9312 105.349 36.352 107.973L48.6656 52.6H76.8V27H38.4C35.4882 27.0005 32.6636 27.9938 30.3924 29.8159C28.1212 31.638 26.5391 34.18 25.9072 37.0224L0.307199 152.222L0.908801 152.363C0.371197 155.347 0.0673397 158.369 0 161.4C0 193.157 25.8432 219 57.6 219C87.168 219 111.322 196.523 114.547 167.8H141.453C144.678 196.523 168.832 219 198.4 219C230.157 219 256 193.157 256 161.4C256 158.302 255.565 155.32 255.091 152.363L255.706 152.222ZM57.6 193.4C39.9616 193.4 25.6 179.038 25.6 161.4C25.6 143.762 39.9616 129.4 57.6 129.4C75.2384 129.4 89.6 143.762 89.6 161.4C89.6 179.038 75.2384 193.4 57.6 193.4ZM198.4 193.4C180.749 193.4 166.4 179.038 166.4 161.4C166.4 143.762 180.749 129.4 198.4 129.4C216.051 129.4 230.4 143.762 230.4 161.4C230.4 179.038 216.051 193.4 198.4 193.4Z" fill="#0A6522"/>
</svg>
